<?xml version="1.0" encoding="UTF-8"?>
<!DOCTYPE svg PUBLIC "-//W3C//DTD SVG 1.1//EN" "http://www.w3.org/Graphics/SVG/1.1/DTD/svg11.dtd">
<svg xmlns="http://www.w3.org/2000/svg" version="1.1" width="96px" height="96px" style="shape-rendering:geometricPrecision; text-rendering:geometricPrecision; image-rendering:optimizeQuality; fill-rule:evenodd; clip-rule:evenodd" xmlns:xlink="http://www.w3.org/1999/xlink">
<g><path style="opacity:0.993" fill="#18193f" d="M 87.5,24.5 C 87.6665,34.1724 87.4998,43.8391 87,53.5C 85.3333,56.1667 83.6667,56.1667 82,53.5C 81.5002,43.5056 81.3335,33.5056 81.5,23.5C 81.2812,20.3263 79.6145,18.4929 76.5,18C 57.8333,17.3333 39.1667,17.3333 20.5,18C 19.2341,18.3095 18.0674,18.8095 17,19.5C 16.036,23.7963 15.2026,28.1296 14.5,32.5C 13.1667,33.8333 11.8333,33.8333 10.5,32.5C 9.33772,27.533 9.17105,22.533 10,17.5C 11.1667,15 13,13.1667 15.5,12C 37.5,11.3333 59.5,11.3333 81.5,12C 86.5639,14.6294 88.5639,18.7961 87.5,24.5 Z"/></g>
<g><path style="opacity:0.992" fill="#18193f" d="M 25.5,23.5 C 25.5,25.5 24.5,26.5 22.5,26.5C 21.5,26.5 20.5,26.5 19.5,26.5C 19.5,24.5 19.5,22.5 19.5,20.5C 21.5,20.5 23.5,20.5 25.5,20.5C 25.5,21.5 25.5,22.5 25.5,23.5 Z"/></g>
<g><path style="opacity:0.996" fill="#191a40" d="M 77.5,23.5 C 76.9283,26.2436 75.2617,27.0769 72.5,26C 71.7476,25.3292 71.4142,24.4959 71.5,23.5C 71.5,22.5 71.5,21.5 71.5,20.5C 73.5,20.5 75.5,20.5 77.5,20.5C 77.5,21.5 77.5,22.5 77.5,23.5 Z"/></g>
<g><path style="opacity:0.999" fill="#8fc9f8" d="M 25.5,23.5 C 40.8333,23.5 56.1667,23.5 71.5,23.5C 71.4142,24.4959 71.7476,25.3292 72.5,26C 75.2617,27.0769 76.9283,26.2436 77.5,23.5C 78.8333,23.5 80.1667,23.5 81.5,23.5C 81.3335,33.5056 81.5002,43.5056 82,53.5C 83.6667,56.1667 85.3333,56.1667 87,53.5C 87.4998,43.8391 87.6665,34.1724 87.5,24.5C 89.4109,24.5743 90.5776,25.5743 91,27.5C 91.6667,46.1667 91.6667,64.8333 91,83.5C 90.6258,84.4162 90.1258,85.2496 89.5,86C 68.2556,87.6437 46.9222,87.977 25.5,87C 23.5743,86.5776 22.5743,85.4109 22.5,83.5C 41.5029,83.6666 60.5029,83.4999 79.5,83C 82.5827,82.214 84.7494,80.3807 86,77.5C 87.4924,72.5893 87.8257,67.5893 87,62.5C 85.3333,61.1667 83.6667,61.1667 82,62.5C 81.6667,66.5 81.3333,70.5 81,74.5C 80.5,75.6667 79.6667,76.5 78.5,77C 59.5029,77.4999 40.5029,77.6666 21.5,77.5C 21.5,76.5 21.5,75.5 21.5,74.5C 25.35,74.2993 26.35,72.4659 24.5,69C 23.552,68.5172 22.552,68.3505 21.5,68.5C 21.5,66.5 21.5,64.5 21.5,62.5C 25.35,62.2993 26.35,60.4659 24.5,57C 23.552,56.5172 22.552,56.3505 21.5,56.5C 21.5,54.5 21.5,52.5 21.5,50.5C 25.35,50.2993 26.35,48.4659 24.5,45C 23.552,44.5172 22.552,44.3505 21.5,44.5C 21.5,42.5 21.5,40.5 21.5,38.5C 25.35,38.2993 26.35,36.4659 24.5,33C 23.552,32.5172 22.552,32.3505 21.5,32.5C 21.3253,30.3792 21.6586,28.3792 22.5,26.5C 24.5,26.5 25.5,25.5 25.5,23.5 Z"/></g>
<g><path style="opacity:0.996" fill="#191a40" d="M 21.5,32.5 C 22.552,32.3505 23.552,32.5172 24.5,33C 26.35,36.4659 25.35,38.2993 21.5,38.5C 20.3065,38.0296 19.6399,37.0296 19.5,35.5C 19.6399,33.9704 20.3065,32.9704 21.5,32.5 Z"/></g>
<g><path style="opacity:1" fill="#1a1d43" d="M 72.5,32.5 C 77.1585,32.0146 78.4919,33.848 76.5,38C 71.7282,38.8104 70.3948,36.9771 72.5,32.5 Z"/></g>
<g><path style="opacity:0.999" fill="#18193f" d="M 21.5,77.5 C 40.5029,77.6666 59.5029,77.4999 78.5,77C 79.6667,76.5 80.5,75.6667 81,74.5C 81.3333,70.5 81.6667,66.5 82,62.5C 83.6667,61.1667 85.3333,61.1667 87,62.5C 87.8257,67.5893 87.4924,72.5893 86,77.5C 84.7494,80.3807 82.5827,82.214 79.5,83C 60.5029,83.4999 41.5029,83.6666 22.5,83.5C 16.7961,84.5639 12.6294,82.5639 10,77.5C 9.33333,64.1667 9.33333,50.8333 10,37.5C 11.6667,36.1667 13.3333,36.1667 15,37.5C 15.3333,49.1667 15.6667,60.8333 16,72.5C 16.4929,75.6145 18.3263,77.2812 21.5,77.5 Z"/></g>
<g><path style="opacity:0.996" fill="#191a40" d="M 21.5,44.5 C 22.552,44.3505 23.552,44.5172 24.5,45C 26.35,48.4659 25.35,50.2993 21.5,50.5C 20.3065,50.0296 19.6399,49.0296 19.5,47.5C 19.6399,45.9704 20.3065,44.9704 21.5,44.5 Z"/></g>
<g><path style="opacity:1" fill="#1a1d43" d="M 72.5,44.5 C 77.1585,44.0146 78.4919,45.848 76.5,50C 71.7282,50.8104 70.3948,48.9771 72.5,44.5 Z"/></g>
<g><path style="opacity:0.996" fill="#191a40" d="M 21.5,56.5 C 22.552,56.3505 23.552,56.5172 24.5,57C 26.35,60.4659 25.35,62.2993 21.5,62.5C 20.3065,62.0296 19.6399,61.0296 19.5,59.5C 19.6399,57.9704 20.3065,56.9704 21.5,56.5 Z"/></g>
<g><path style="opacity:1" fill="#1a1d43" d="M 72.5,56.5 C 77.1585,56.0146 78.4919,57.848 76.5,62C 71.7282,62.8104 70.3948,60.9771 72.5,56.5 Z"/></g>
<g><path style="opacity:0.996" fill="#191a40" d="M 21.5,68.5 C 22.552,68.3505 23.552,68.5172 24.5,69C 26.35,72.4659 25.35,74.2993 21.5,74.5C 20.3065,74.0296 19.6399,73.0296 19.5,71.5C 19.6399,69.9704 20.3065,68.9704 21.5,68.5 Z"/></g>
<g><path style="opacity:1" fill="#1a1d43" d="M 72.5,68.5 C 77.1585,68.0146 78.4919,69.848 76.5,74C 71.7282,74.8104 70.3948,72.9771 72.5,68.5 Z"/></g>
</svg>
